<svg xmlns="http://www.w3.org/2000/svg" width="51.562" height="38.671" viewBox="0 0 51.562 38.671"><g transform="translate(-656 -122)"><path d="M31.8,24.247l5.333-5.333L31.8,13.58V6.023H24.247L18.914.69,13.58,6.023H6.023V13.58L.69,18.914l5.333,5.333V31.8H13.58l5.333,5.333L24.247,31.8H31.8V24.247Zm-12.89,4.334a9.668,9.668,0,1,1,9.668-9.668A9.675,9.675,0,0,1,18.914,28.582Z" transform="translate(655.31 121.31)" fill="#ff8f00"/><path d="M31.179,13.732A12.073,12.073,0,0,0,8.62,10.51,9.664,9.664,0,0,0,9.668,29.781H30.615a8.033,8.033,0,0,0,.564-16.048Z" transform="translate(668.89 130.89)" fill="#fff"/></g></svg>